{"title":"Fragments.2008.DVDRiP.XViD.OPTIONAL.NORDIC-Zen_Bud","uid":5866233,"size":750266401,"categoryP":"video","categoryS":"movies","magnet":"?xt=urn:btih:eb4165b9b269c7e941f3a973267d1912a1d840fb&amp;dn=Fragments.2008.DVDRiP.XViD.OPTIONAL.NORDIC-Zen_Bud&amp;tr=udp%3A%2F%2Ftracker.openbittorrent.com%3A80&amp;tr=udp%3A%2F%2Fopen.demonii.com%3A1337&amp;tr=udp%3A%2F%2Ftracker.coppersurfer.tk%3A6969&amp;tr=udp%3A%2F%2Fexodus.desync.com%3A6969","seeders":0,"leechers":1,"uploader":"Zen_Bud","files":-1,"time":1286180670,"description":"\n******* Fragments.2008.DVDRiP.XViD.OPTIONAL.NORDIC-Zen_Bud ********\n\nFormat                           : AVI\nFile size                        : 706 MiB\nDuration                         : 1h 31mn\nOverall bit rate                 : 1 075 Kbps\n\nVideo\n\nFormat                           : MPEG-4 Visual\nCodec ID/Hint                    : XviD\nDuration                         : 1h 31mn\nBit rate                         : 934 Kbps\nWidth                            : 720 pixels\nHeight                           : 576 pixels\nDisplay aspect ratio             : 16:9\nStream size                      : 613 MiB (87%)\nWriting library                  : XviD 1.1.2 (UTC 2006-11-01)\n\nAudio\n\nFormat                           : MPEG Audio\nCodec ID/Hint                    : MP3\nDuration                         : 1h 31mn\nBit rate                         : 128 Kbps\nChannel(s)                       : 2 channels\nSampling rate                    : 48.0 KHz\nStream size                      : 84.0 MiB (12%)\nLanguage                         : English\n\nText #1\nLanguage                         : Danish\n\nText #2\nLanguage                         : Finnish\n\nText #3\nLanguage                         : Norwegian\n\nText #4\nLanguage                         : Swedish\n\n","torrent":{"xt":"urn:btih:eb4165b9b269c7e941f3a973267d1912a1d840fb","amp;dn":"Fragments.2008.DVDRiP.XViD.OPTIONAL.NORDIC-Zen_Bud","amp;tr":["udp%3A%2F%2Ftracker.openbittorrent.com%3A80","udp%3A%2F%2Fopen.demonii.com%3A1337","udp%3A%2F%2Ftracker.coppersurfer.tk%3A6969","udp%3A%2F%2Fexodus.desync.com%3A6969"],"infoHash":"eb4165b9b269c7e941f3a973267d1912a1d840fb","infoHashBuffer":{"type":"Buffer","data":[235,65,101,185,178,105,199,233,65,243,169,115,38,125,25,18,161,216,64,251]},"announce":[],"urlList":[]}}